<?xml version="1.0" standalone="no"?><!DOCTYPE svg PUBLIC "-//W3C//DTD SVG 1.1//EN" "http://www.w3.org/Graphics/SVG/1.1/DTD/svg11.dtd"><svg t="1705069071802" class="icon" viewBox="0 0 1024 1024" version="1.1" xmlns="http://www.w3.org/2000/svg" p-id="4355" xmlns:xlink="http://www.w3.org/1999/xlink" width="200" height="200"><path d="M512 128c74.24 0 143.36 21.333333 202.24 57.6C741.546667 150.613333 784.213333 128 832 128A149.333333 149.333333 0 0 1 981.333333 277.333333c0 64-40.533333 118.613333-97.28 139.946667 7.68 30.72 11.946667 61.866667 11.946667 94.72a384 384 0 0 1-384 384 384 384 0 0 1-384-384c0-32.853333 4.266667-64 11.946667-94.72A149.76 149.76 0 0 1 42.666667 277.333333 149.333333 149.333333 0 0 1 192 128c47.786667 0 90.453333 22.613333 117.76 57.6C368.64 149.333333 437.76 128 512 128m0 85.333333a298.666667 298.666667 0 0 0-298.666667 298.666667 298.666667 298.666667 0 0 0 298.666667 298.666667 298.666667 298.666667 0 0 0 298.666667-298.666667 298.666667 298.666667 0 0 0-298.666667-298.666667m178.773333 226.133334c15.36 56.746667-4.693333 111.36-44.373333 122.026666-40.106667 11.093333-84.48-26.453333-99.84-83.626666-15.36-56.746667 4.693333-111.36 44.373333-122.026667 40.106667-10.666667 84.48 26.453333 99.84 83.626667m-357.546666 0c15.36-57.173333 59.733333-94.293333 99.84-83.626667 39.68 10.666667 59.733333 65.28 44.373333 122.026667-15.36 57.173333-59.733333 94.72-99.84 83.626666-39.68-10.666667-59.733333-65.28-44.373333-122.026666M512 597.333333c25.6 0 48.213333 8.106667 64 21.333334l-42.666667 42.666666c0 17.92 14.506667 32 32 32a32 32 0 0 0 32-32 21.333333 21.333333 0 0 1 21.333334-21.333333 21.333333 21.333333 0 0 1 21.333333 21.333333 74.666667 74.666667 0 0 1-74.666667 74.666667c-20.906667 0-39.68-8.533333-53.333333-22.613333-13.653333 14.08-32.426667 22.613333-53.333333 22.613333A74.666667 74.666667 0 0 1 384 661.333333a21.333333 21.333333 0 0 1 21.333333-21.333333 21.333333 21.333333 0 0 1 21.333334 21.333333 32 32 0 0 0 32 32 32 32 0 0 0 32-32l-42.666667-42.666666c15.786667-13.226667 38.4-21.333333 64-21.333334z" fill="" p-id="4356"></path></svg>